<?xml version="1.0" encoding="iso-8859-1"?>
<!-- Generator: Adobe Illustrator 24.1.0, SVG Export Plug-In . SVG Version: 6.00 Build 0)  -->
<svg version="1.1" id="Layer_1" xmlns="http://www.w3.org/2000/svg" xmlns:xlink="http://www.w3.org/1999/xlink" x="0px" y="0px"
	 viewBox="0 0 751.307 380.514" style="enable-background:new 0 0 751.307 380.514;" xml:space="preserve">
<path style="fill-rule:evenodd;clip-rule:evenodd;fill:#0075B9;" d="M3.179,234.405l11.776-99.822h59.02l-8.99,65.478
	c-3.099,20.828-3.428,21.166,18.759,3.495l72.277-57.567c29.9-24.906,65.32-39.23,79.464-12.082
	c8.312,15.531,9.162,32.725,14.989,76.607c1.875,14.119,3.988,22.814,15.812,7.636l76.061-97.634l26.594,0.109
	c-19.292,22.62-42.019,53.154-63.539,80.95c-27.307,35.272-46.437,57.853-60.417,51.686c-20.084-8.861-0.156-91.895-31.046-112.363
	C172.971,113.751,79.581,254.513,18.475,253.748C3.169,253.557,1.702,246.925,3.179,234.405 M61.328,285.291
	c-11.472,9.95-24.504,19.02-41.397,18.865c-6.328-0.058-11.254-1.404-14.871-3.655c6.181-0.41,13.05-2.703,20.896-6.471
	c35.041-16.829,79.303-64.483,115.457-95.088c40.545-34.321,55.647-43.035,65.612,16.939c5.024,30.237,9.68,65.382,32.048,67.506
	c31.558,2.997,112.2-112.734,163.816-162.623h0.026c-37.899,47.687-87.179,117.717-128.224,161.876
	c-12.215,13.142-26.515,23.504-43.205,22.441c-11.62-0.74-21.213-7.171-24.082-19.191c-7.597-31.169-13.445-55.16-21.042-86.329
	c-2.987-12.248-6.123-16.949-19.578-5.331L61.328,285.291z"/>
<path style="fill-rule:evenodd;clip-rule:evenodd;fill:#FC6962;" d="M614.126,139.047c11.472-9.95,24.504-19.02,41.397-18.865
	c16.894,0.155,23.796,9.49,22.487,20.716l-12.023,103.186h-58.507l2.989-19.808c3.099-20.828,3.428-21.166-18.759-3.495
	l-72.277,57.567c-29.9,24.906-65.32,39.23-79.464,12.082c-8.312-15.531-9.162-32.725-14.989-76.608
	c-1.875-14.119-3.988-22.814-15.812-7.636l-76.062,97.634l-72.944-0.248c34.149-22.563,102.848-124.377,143.89-168.534
	c12.212-13.14,23.224-16.844,39.914-15.782c11.618,0.739,21.213,7.171,24.082,19.191c7.597,31.169,13.445,55.16,21.042,86.329
	c2.987,12.249,6.123,16.949,19.578,5.331L614.126,139.047z"/>
<polygon style="fill-rule:evenodd;clip-rule:evenodd;fill:#0075B9;" points="614.307,304.763 677.446,304.763 683.286,254.542 
	620.978,254.27 "/>
<polygon style="fill-rule:evenodd;clip-rule:evenodd;fill:#FC6962;" points="6.552,117.672 67.672,117.672 73.325,69.058 
	13.01,68.795 "/>
<polygon style="fill-rule:evenodd;clip-rule:evenodd;fill:#FC6962;" points="692.609,286.709 736.379,286.709 740.427,251.895 
	697.234,251.706 "/>
<polygon style="fill-rule:evenodd;clip-rule:evenodd;fill:#0075B9;" points="87.119,105.642 129.489,105.642 133.408,71.941 
	91.596,71.758 "/>
<polygon style="fill-rule:evenodd;clip-rule:evenodd;fill:#0075B9;" points="687.581,239.865 726.662,239.865 730.276,208.78 
	691.711,208.612 "/>
<polygon style="fill-rule:evenodd;clip-rule:evenodd;fill:#0075B9;" points="65.915,60.295 103.745,60.295 107.245,30.206 
	69.913,30.042 "/>
<polygon style="fill-rule:evenodd;clip-rule:evenodd;fill:#FC6962;" points="724.806,197.577 747.232,197.577 749.307,179.74 
	727.175,179.643 "/>
<polygon style="fill-rule:evenodd;clip-rule:evenodd;fill:#FC6962;" points="101.949,19.361 123.658,19.361 125.666,2.094 
	104.243,2 "/>
<path style="fill:#0075B9;" d="M105.226,218.952c15.764-15.231,31.375-29.579,49.218-42.381
	c10.109-6.907,20.873-13.722,33.176-15.614c4.475-0.468,7.882-0.212,12.049,1.577c3.91,1.893,6.236,4.139,8.688,7.69
	c5.51,8.866,7.028,18.811,8.152,29.021c1.391,14.268,2.345,28.358,4.899,42.493c1.194,6.014,2.513,11.333,5.012,16.959
	c2.05,4.257,4.152,7.56,8.179,10.177c1.497,0.882,2.983,1.285,4.684,1.587c2.448,0.389,4.486,0.379,6.946,0.106
	c6.854-0.938,11.72-3.316,17.168-7.533c11.113-9.249,23.115-21.152,33.395-32.5c1.109-1.225,12.64-14.355,11.579-15.311
	c-0.911-0.821-12.203,11.763-13.377,12.96c-10.766,10.977-23.275,22.085-34.518,31.361c-4.695,3.692-8.908,5.828-14.845,6.692
	c-2.015,0.236-3.7,0.264-5.708-0.04c-1.069-0.184-2.228-0.451-3.171-1.011c-3.197-2.055-4.934-4.942-6.568-8.293
	c-2.375-5.256-3.641-10.335-4.785-15.965c-2.598-13.972-3.582-27.975-4.991-42.094c-1.232-11.014-2.874-21.208-8.819-30.77
	c-2.901-4.2-5.683-6.827-10.304-9.068c-4.891-2.102-8.867-2.454-14.126-1.912c-13.13,1.987-24.17,8.851-34.986,16.185
	c-18.082,12.788-34.01,27.15-50.091,42.324C74.765,241.174,40.737,274.164,0,269.289c0.181,3.517,0.553,7.324,1.192,11.365
	C36.782,288.754,88.498,234.992,105.226,218.952"/>
<path style="fill:#0075B9;" d="M312.026,211.005c-0.762-0.61,3.747-6.437,4.183-6.981c0.436-0.545,5.141-6.215,5.903-5.605
	c0.767,0.615-3.741,6.439-4.179,6.986C317.494,205.951,312.793,211.621,312.026,211.005"/>
<path style="fill:#0075B9;" d="M331.764,186.558c-0.616-0.471,2.878-5.209,3.217-5.652c0.338-0.441,3.995-5.055,4.615-4.581
	c0.625,0.478-2.874,5.211-3.213,5.655C336.043,182.425,332.385,187.033,331.764,186.558"/>
<path style="fill:#0075B9;" d="M349.074,166.342c-0.491-0.376,2.308-4.164,2.579-4.518c0.269-0.352,3.193-4.047,3.688-3.669
	c0.5,0.383-2.303,4.167-2.574,4.522C352.494,163.033,349.571,166.721,349.074,166.342"/>
<path style="fill:#0075B9;" d="M363.227,148.796c-0.422-0.323,1.993-3.595,2.225-3.898c0.23-0.301,2.732-3.457,3.156-3.133
	c0.43,0.328-1.963,3.565-2.195,3.868C366.179,145.939,363.654,149.124,363.227,148.796"/>
<path style="fill:#0075B9;" d="M377.839,130.121c-0.323-0.247,1.487-2.69,1.66-2.917c0.175-0.228,2.063-2.609,2.382-2.365
	c0.324,0.248-1.48,2.689-1.656,2.92C380.05,127.989,378.167,130.372,377.839,130.121"/>
<path style="fill:#0075B9;" d="M271.904,352.771c2.944-3.158,4.603-5.513,4.603-8.51c0-5.566-5.031-8.671-10.811-8.671
	c-5.78,0-10.811,3.211-10.811,8.777c0,2.837,1.606,5.459,3.639,6.851l3.533-3.693c-0.91-0.696-1.499-1.606-1.499-2.89
	c0-2.569,2.087-4.014,5.192-4.014c3.051,0,5.031,1.338,5.031,3.8c0,2.034-0.856,3.158-2.194,4.549l-13.862,14.879v4.121h21.944
	v-4.924h-14.397L271.904,352.771z M522.321,357.748v1.659c0,2.73-0.856,4.014-3.318,4.014c-2.516,0-3.319-1.284-3.319-4.014v-8.724
	h10.33v-4.817h-10.33v-7.654h-5.566v21.194c0,5.78,3.318,8.938,8.885,8.938c5.513,0,8.884-3.158,8.884-8.938v-1.659H522.321z
	 M471.112,353.145c0.749-3.211,3.265-5.138,6.85-5.138c3.372,0,5.834,1.82,6.744,5.138H471.112z M490.38,355.447
	c0-6.637-4.496-12.256-12.47-12.256c-6.797,0-12.685,4.656-12.685,12.417c0,7.6,5.941,12.738,13.166,12.738
	c3.479,0,6.476-0.964,8.938-2.89l-2.837-4.014c-1.606,1.124-3.425,2.087-6.101,2.087c-3.211,0-6.422-1.98-7.279-5.78h19.053
	C490.326,356.999,490.38,356.196,490.38,355.447z M442.863,367.971h5.994l-7.279-16.645l6.262-7.761h-6.69l-9.152,11.721v-23.71
	h-5.566v36.394h5.566v-5.513l5.62-6.69L442.863,367.971z M407.924,345.492c-1.124-1.07-2.944-2.301-5.994-2.301
	c-4.71,0-7.44,2.355-8.777,5.726v19.054h5.566v-16.11c0-2.623,1.124-3.533,3.211-3.533c1.284,0,2.087,0.321,3.051,1.177
	L407.924,345.492z M367.312,359.568c0,3.104-2.676,3.961-5.352,3.961c-2.783,0-4.978-0.964-4.978-3.158
	c0-1.766,1.177-2.623,4.121-2.623h6.209V359.568z M361.746,343.191c-3.586,0-6.744,1.017-9.58,2.569l2.355,4.335
	c2.034-1.124,4.549-2.087,7.225-2.087c3.265,0,5.566,1.552,5.566,4.71v0.428h-6.209c-6.423,0-9.848,2.997-9.848,7.279
	c0,5.245,5.192,7.921,10.651,7.921c5.406,0,8.938-2.141,10.972-6.316v-9.313C372.878,346.402,368.061,343.191,361.746,343.191z
	 M321.883,343.191c-3.479,0-5.994,1.605-7.386,3.532c-1.392-1.927-3.8-3.532-6.744-3.532c-5.566,0-8.617,2.997-10.544,7.279v17.501
	h5.566v-14.237c0-3.318,1.98-5.62,4.71-5.62c2.729,0,4.121,2.302,4.121,5.62v14.237h5.566v-14.237c0-3.318,1.606-5.62,4.389-5.62
	c2.676,0,4.442,2.302,4.442,5.62v14.237h5.566v-14.397C331.57,347.204,327.503,343.191,321.883,343.191z M236.43,343.565h-5.994
	l-6.101,15.2l-6.744-15.2h-6.155l9.955,21.783l-5.78,13.166h6.101L236.43,343.565z M188.646,359.568
	c0,3.104-2.676,3.961-5.352,3.961c-2.783,0-4.978-0.964-4.978-3.158c0-1.766,1.178-2.623,4.121-2.623h6.208V359.568z
	 M183.08,343.191c-3.586,0-6.744,1.017-9.58,2.569l2.355,4.335c2.034-1.124,4.549-2.087,7.225-2.087c3.265,0,5.566,1.552,5.566,4.71
	v0.428h-6.208c-6.423,0-9.848,2.997-9.848,7.279c0,5.245,5.192,7.921,10.651,7.921c5.406,0,8.938-2.141,10.972-6.316v-9.313
	C194.212,346.402,189.395,343.191,183.08,343.191z M149.372,343.565l-4.978,15.307l-4.871-9.687h-3.586l-4.763,9.687l-5.085-15.307
	h-5.834l8.617,24.406h2.837l5.941-11.561l6.101,11.561h2.89l8.456-24.406H149.372z"/>
<g>
	<path style="fill:#0075B9;" d="M544.366,368.235c-2.568,0-4.245-1.468-4.245-4.035c0-2.62,1.677-3.982,4.245-3.982
		c2.567,0,4.191,1.362,4.191,3.982C548.557,366.767,546.933,368.235,544.366,368.235z"/>
	<path style="fill:#0075B9;" d="M570.251,339.992c-2.306,0-3.563-1.258-3.563-3.563s1.257-3.511,3.563-3.511
		s3.563,1.205,3.563,3.511S572.557,339.992,570.251,339.992z M572.975,367.868h-5.449v-23.894h5.449V367.868z"/>
	<path style="fill:#0075B9;" d="M603.157,349.791c-0.943-0.839-1.729-1.153-2.987-1.153c-2.043,0-3.144,0.891-3.144,3.458v15.772
		h-5.449v-18.654c1.31-3.301,3.982-5.606,8.593-5.606c2.987,0,4.769,1.205,5.869,2.253L603.157,349.791z"/>
</g>
</svg>
